<svg width="24" height="24" viewBox="0 0 24 24" fill="none" xmlns="http://www.w3.org/2000/svg">
  <rect width="24" height="24" rx="4" fill="#000000"/>
  <path d="M8.2 6.5c-.2 1.2.3 2.4 1 3.2.8.9 2 1.5 3.3 1.4.1-1.2-.3-2.4-1-3.2-.8-.9-2.1-1.5-3.3-1.4zm2.6 1.8c-1.8-.1-3.3 1-4.1 1-.9 0-2.2-1-3.6-1-.9 0-1.8.5-2.3 1.3-1 1.7-.3 4.2.7 5.6.5.7 1.1 1.4 1.9 1.4.9 0 1.2-.6 2.2-.6s1.4.6 2.2.6c.9 0 1.3-.7 1.8-1.4.6-.8.8-1.6.8-1.6s-1.6-.6-1.6-2.4c0-1.5 1.2-2.2 1.3-2.3-.7-1-1.8-1.1-2.2-1.1-.1 0-.1 0-.1.5z" fill="white"/>
  <path d="M16.5 8.5v7h-.9V9.4h-.9v-.6h.9V8.2c0-.6.4-1 1-1h.6v.6h-.5c-.3 0-.5.2-.5.5v.6h1v.6h-1zm2.3 2.8c-.6 0-1 .4-1 1v2.2c0 .6.4 1 1 1s1-.4 1-1v-2.2c0-.6-.4-1-1-1zm.5 3.2c0 .3-.2.5-.5.5s-.5-.2-.5-.5v-2.2c0-.3.2-.5.5-.5s.5.2.5.5v2.2z" fill="white"/>
</svg>