<svg width="24" height="24" viewBox="0 0 24 24" fill="none" xmlns="http://www.w3.org/2000/svg">
  <rect width="24" height="24" rx="4" fill="#4285F4"/>
  <path d="M10.5 9v6h-1.5V9H10.5zm2.25 0c.825 0 1.5.675 1.5 1.5v3c0 .825-.675 1.5-1.5 1.5H11.25V9h1.5zm0 1.5H11.25v3h1.5v-3zm3.75-1.5v4.5c0 .825-.675 1.5-1.5 1.5s-1.5-.675-1.5-1.5V10.5c0-.825.675-1.5 1.5-1.5s1.5.675 1.5 1.5zm-1.5 0c0-.275-.225-.5-.5-.5s-.5.225-.5.5v3c0 .275.225.5.5.5s.5-.225.5-.5v-3z" fill="white"/>
  <circle cx="7" cy="12" r="1.5" fill="white"/>
</svg>